<svg width="20" height="20" viewBox="0 0 20 20" fill="none" xmlns="http://www.w3.org/2000/svg">
<path d="M2.47363 8.22949V3.81516C2.47363 3.0434 3.09937 2.41777 3.87125 2.41777H16.1293C16.9011 2.41777 17.5269 3.0434 17.5269 3.81516V8.22949" stroke="#17181C" stroke-miterlimit="10" stroke-linecap="round" stroke-linejoin="round"/>
<path d="M18.688 16.4727H1.31203C0.911015 16.4727 0.585938 16.1476 0.585938 15.7466V11.2941C0.585938 10.8932 0.911015 10.5681 1.31203 10.5681H18.688C19.089 10.5681 19.4141 10.8932 19.4141 11.2941V15.7466C19.4141 16.1476 19.089 16.4727 18.688 16.4727Z" stroke="#17181C" stroke-miterlimit="10" stroke-linecap="round" stroke-linejoin="round"/>
<path d="M18.4382 10.5674V9.645C18.4382 8.86285 17.804 8.22875 17.0217 8.22875H2.97898C2.19668 8.22875 1.5625 8.86285 1.5625 9.645V10.5674" stroke="#17181C" stroke-miterlimit="10" stroke-linecap="round" stroke-linejoin="round"/>
<path d="M8.29285 8.22949C8.69246 8.22949 9.01641 7.90559 9.01641 7.50602V6.6143C9.01641 6.21477 8.69246 5.89086 8.29285 5.89086H5.14645C4.7468 5.89086 4.42285 6.21477 4.42285 6.6143V7.50602C4.42285 7.90559 4.7468 8.22949 5.14645 8.22949" stroke="#17181C" stroke-miterlimit="10" stroke-linecap="round" stroke-linejoin="round"/>
<path d="M14.8534 8.22949C15.253 8.22949 15.577 7.90559 15.577 7.50602V6.6143C15.577 6.21477 15.253 5.89086 14.8534 5.89086H11.707C11.3074 5.89086 10.9834 6.21477 10.9834 6.6143V7.50602C10.9834 7.90559 11.3074 8.22949 11.707 8.22949" stroke="#17181C" stroke-miterlimit="10" stroke-linecap="round" stroke-linejoin="round"/>
<path d="M1.83301 16.4726V17.583" stroke="#17181C" stroke-miterlimit="10" stroke-linecap="round" stroke-linejoin="round"/>
<path d="M18.167 16.4726V17.583" stroke="#17181C" stroke-miterlimit="10" stroke-linecap="round" stroke-linejoin="round"/>
</svg>
